
<svg width="488" height="258" viewBox="0 0 488 258" fill="none" xmlns="http://www.w3.org/2000/svg">
<path d="M8.1 174C6.5 174 5.4 173.55 4.8 172.65C4.3 171.75 4.35 170.5 4.95 168.9L43.65 72.45C44.35 70.15 46 69 48.6 69H49.35C51.95 69 53.6 70.15 54.3 72.45L93.15 168.9C94.25 172.3 93.2 174 90 174H88.5C86.1 174 84.45 172.85 83.55 170.55L72.45 142.35H25.5L14.25 170.55C13.45 172.85 11.8 174 9.3 174H8.1ZM28.65 133.5H69.15L49.05 82.05L28.65 133.5ZM113.748 205.2C110.648 205.2 109.098 203.55 109.098 200.25V107.1C109.098 103.8 110.548 102.15 113.448 102.15C116.248 102.15 117.648 103.15 117.648 105.15L117.798 115.2C120.398 110.5 123.848 106.85 128.148 104.25C132.448 101.65 137.348 100.35 142.848 100.35C149.248 100.35 154.948 101.95 159.948 105.15C164.948 108.25 168.848 112.65 171.648 118.35C174.548 123.95 175.998 130.5 175.998 138C175.998 145.5 174.548 152.1 171.648 157.8C168.848 163.4 164.948 167.8 159.948 171C154.948 174.1 149.248 175.65 142.848 175.65C137.448 175.65 132.648 174.35 128.448 171.75C124.248 169.15 120.848 165.65 118.248 161.25V200.25C118.248 203.55 116.748 205.2 113.748 205.2ZM142.698 167.1C147.398 167.1 151.548 165.9 155.148 163.5C158.848 161.1 161.748 157.75 163.848 153.45C165.948 149.05 166.998 143.9 166.998 138C166.998 132.1 165.948 127 163.848 122.7C161.748 118.3 158.848 114.9 155.148 112.5C151.548 110.1 147.398 108.9 142.698 108.9C135.598 108.9 129.748 111.55 125.148 116.85C120.548 122.05 118.248 129.1 118.248 138C118.248 146.8 120.548 153.85 125.148 159.15C129.748 164.45 135.598 167.1 142.698 167.1ZM199.002 205.2C195.902 205.2 194.352 203.55 194.352 200.25V107.1C194.352 103.8 195.802 102.15 198.702 102.15C201.502 102.15 202.902 103.15 202.902 105.15L203.052 115.2C205.652 110.5 209.102 106.85 213.402 104.25C217.702 101.65 222.602 100.35 228.102 100.35C234.502 100.35 240.202 101.95 245.202 105.15C250.202 108.25 254.102 112.65 256.902 118.35C259.802 123.95 261.252 130.5 261.252 138C261.252 145.5 259.802 152.1 256.902 157.8C254.102 163.4 250.202 167.8 245.202 171C240.202 174.1 234.502 175.65 228.102 175.65C222.702 175.65 217.902 174.35 213.702 171.75C209.502 169.15 206.102 165.65 203.502 161.25V200.25C203.502 203.55 202.002 205.2 199.002 205.2ZM227.952 167.1C232.652 167.1 236.802 165.9 240.402 163.5C244.102 161.1 247.002 157.75 249.102 153.45C251.202 149.05 252.252 143.9 252.252 138C252.252 132.1 251.202 127 249.102 122.7C247.002 118.3 244.102 114.9 240.402 112.5C236.802 110.1 232.652 108.9 227.952 108.9C220.852 108.9 215.002 111.55 210.402 116.85C205.802 122.05 203.502 129.1 203.502 138C203.502 146.8 205.802 153.85 210.402 159.15C215.002 164.45 220.852 167.1 227.952 167.1Z" fill="#FF5722"/>
<path d="M284.256 174C281.156 174 279.606 172.35 279.606 169.05V70.65C279.606 67.35 281.156 65.7 284.256 65.7C287.256 65.7 288.756 67.35 288.756 70.65V112.35C290.856 108.95 293.806 106.1 297.606 103.8C301.506 101.5 305.906 100.35 310.806 100.35C318.506 100.35 324.706 102.8 329.406 107.7C334.106 112.6 336.456 119.6 336.456 128.7V169.05C336.456 172.35 334.956 174 331.956 174C328.956 174 327.456 172.35 327.456 169.05V130.05C327.456 123.05 325.756 117.8 322.356 114.3C319.056 110.8 314.756 109.05 309.456 109.05C305.456 109.05 301.856 109.95 298.656 111.75C295.556 113.45 293.106 115.8 291.306 118.8C289.606 121.7 288.756 124.95 288.756 128.55V169.05C288.756 172.35 287.256 174 284.256 174ZM365.904 174C362.904 174 361.404 172.35 361.404 169.05V107.1C361.404 103.8 362.904 102.15 365.904 102.15C368.904 102.15 370.404 103.8 370.404 107.1V169.05C370.404 172.35 368.904 174 365.904 174ZM365.904 86.55C364.004 86.55 362.354 85.9 360.954 84.6C359.554 83.2 358.854 81.55 358.854 79.65C358.854 77.65 359.554 76 360.954 74.7C362.354 73.4 364.004 72.75 365.904 72.75C367.804 72.75 369.404 73.4 370.704 74.7C372.004 76 372.654 77.65 372.654 79.65C372.654 81.55 372.004 83.2 370.704 84.6C369.404 85.9 367.804 86.55 365.904 86.55ZM399.686 174C396.586 174 395.036 172.35 395.036 169.05V70.65C395.036 67.35 396.586 65.7 399.686 65.7C402.686 65.7 404.186 67.35 404.186 70.65V169.05C404.186 172.35 402.686 174 399.686 174ZM430.13 206.4C429.13 206.4 428.13 206.35 427.13 206.25C426.23 206.15 425.28 206 424.28 205.8C421.28 205.5 419.78 203.85 419.78 200.85C419.78 198.25 421.08 197.1 423.68 197.4C425.68 197.7 427.63 197.85 429.53 197.85C433.23 197.85 435.98 197 437.78 195.3C439.58 193.7 441.28 190.85 442.88 186.75L447.68 174L421.73 107.85C421.03 106.15 420.93 104.8 421.43 103.8C421.93 102.7 422.88 102.15 424.28 102.15H424.73C427.43 102.15 429.33 103.45 430.43 106.05L451.88 162.6L472.58 106.2C473.48 103.5 475.33 102.15 478.13 102.15C479.73 102.15 480.83 102.7 481.43 103.8C482.03 104.8 482.03 106.15 481.43 107.85L450.98 189.6C448.88 195.4 446.23 199.65 443.03 202.35C439.83 205.05 435.53 206.4 430.13 206.4Z" fill="#FF9800"/>
<mask id="path-2-inside-1_7_145" fill="white">
<path fill-rule="evenodd" clip-rule="evenodd" d="M279.892 211.477C280.849 237.343 300.862 258 325.41 258C349.959 258 369.972 237.343 370.928 211.477H361.922C360.978 232.849 344.509 249 325.41 249C306.312 249 289.843 232.849 288.899 211.477H279.892Z"/>
</mask>
<path fill-rule="evenodd" clip-rule="evenodd" d="M279.892 211.477C280.849 237.343 300.862 258 325.41 258C349.959 258 369.972 237.343 370.928 211.477H361.922C360.978 232.849 344.509 249 325.41 249C306.312 249 289.843 232.849 288.899 211.477H279.892Z" fill="#FF5722"/>
<path d="M279.892 211.477V210.477H278.855L278.893 211.514L279.892 211.477ZM370.928 211.477L371.928 211.514L371.966 210.477H370.928V211.477ZM361.922 211.477V210.477H360.965L360.923 211.433L361.922 211.477ZM288.899 211.477L289.898 211.433L289.856 210.477H288.899V211.477ZM278.893 211.514C279.867 237.859 300.268 259 325.41 259V257C301.456 257 281.83 236.826 280.892 211.44L278.893 211.514ZM325.41 259C350.553 259 370.954 237.859 371.928 211.514L369.929 211.44C368.99 236.826 349.365 257 325.41 257V259ZM370.928 210.477H361.922V212.477H370.928V210.477ZM325.41 250C345.096 250 361.956 233.375 362.921 211.521L360.923 211.433C360 232.324 343.922 248 325.41 248V250ZM287.9 211.521C288.865 233.375 305.725 250 325.41 250V248C306.899 248 290.821 232.324 289.898 211.433L287.9 211.521ZM288.899 210.477H279.892V212.477H288.899V210.477Z" fill="#FF5722" mask="url(#path-2-inside-1_7_145)"/>
<line x1="284.5" y1="186" x2="284.5" y2="198" stroke="#FF5722" stroke-width="9"/>
<circle cx="284.5" cy="186.5" r="4" fill="#FF5722" stroke="#FF5722"/>
<line x1="366.5" y1="186" x2="366.5" y2="198" stroke="#FF5722" stroke-width="9"/>
<circle cx="366.5" cy="186.5" r="4" fill="#FF5722" stroke="#FF5722"/>
</svg>
